<svg xmlns:dc="http://purl.org/dc/elements/1.1/" xmlns:cc="http://creativecommons.org/ns#"
     xmlns:rdf="http://www.w3.org/1999/02/22-rdf-syntax-ns#" xmlns:svg="http://www.w3.org/2000/svg"
     xmlns="http://www.w3.org/2000/svg" xmlns:xlink="http://www.w3.org/1999/xlink" id="svg413804" version="1.1"
     fill="none" viewBox="270.61 359.89 482.79 48.23">
  <g id="logo-group">
    <image xlink:href="" id="container" x="272" y="144" width="480" height="480" style="display: none;"
           transform="translate(0 0)"></image>
    <g id="logo-center" transform="translate(0 0)">
      <image xlink:href="" id="icon_container" style="display: none;" x="0" y="0"></image>
      <g id="slogan"
         style="font-style:normal;font-weight:600;font-size:32px;line-height:1;font-family:Quicksand;font-variant-ligatures:none;text-align:center;text-anchor:middle"
         transform="translate(0 0)"></g>
      <g id="title"
         style="font-style:normal;font-weight:400;font-size:72px;line-height:1;font-family:'Brandmark Dots 1 Color';font-variant-ligatures:normal;text-align:center;text-anchor:middle"
         transform="translate(0 0)">
        <g id="path413813" aria-label="H"
           transform="translate(0 305.236) translate(270.60844959999986 55.832) scale(0.91) translate(-249.605 50.4)">
          <path class="c1"
                d="M80.0542,79.5417c0-2.5918,2.16016-4.75195,4.75293-4.75195c2.66406,0,4.82422,2.16016,4.82422,4.75195 v16.56152h20.7373V93.8708c0-2.5918,2.16016-4.75195,4.82422-4.75195c2.59277,0,4.75293,2.16016,4.75293,4.75195v26.57031 c0,2.59277-2.16016,4.75293-4.75293,4.75293c-2.66406,0-4.82422-2.16016-4.82422-4.75293V105.1042h-20.7373v15.33691 c0,2.59277-2.16016,4.75293-4.82422,4.75293c-2.59277,0-4.75293-2.16016-4.75293-4.75293V79.5417z"
                transform="translate(169.5508 -125.18975)" stroke-width="0" stroke-linejoin="miter"
                stroke-miterlimit="2" fill="#6C5FFC" stroke="#6C5FFC"></path>
          <path class="c3"
                d="M110.36865,79.5417c0-2.5918,2.16016-4.75195,4.82422-4.75195c2.59277,0,4.75293,2.16016,4.75293,4.75195 c0,2.66406-2.16016,4.82422-4.75293,4.82422C112.52881,84.36592,110.36865,82.20576,110.36865,79.5417z"
                transform="translate(169.5508 -125.18975)" stroke-width="0" stroke-linejoin="miter"
                stroke-miterlimit="2" fill="#3ac37b" stroke="#3ac37b"></path>
        </g>
        <g id="path413815" aria-label="O"
           transform="translate(0 305.236) translate(315.0647887999999 54.65264) scale(0.91) translate(-298.45812 51.696)">
          <path class="c1"
                d="M99.96436,126.48994c-14.61719,0-26.49902-11.88086-26.49902-26.57031 c0-8.20898,3.74512-15.69727,10.22559-20.80957c2.01563-1.58398,5.04004-1.22461,6.69629,0.86426 c1.58398,2.01563,1.22363,5.04004-0.86426,6.69629c-4.10449,3.24023-6.48047,7.99219-6.48047,13.24902 c0,9.36035,7.56055,16.99316,16.92188,16.99316c9.36035,0,16.99316-7.63281,16.99316-16.99316 c0-5.25684-2.37598-10.00879-6.55273-13.24902c-2.08789-1.65625-2.44824-4.68066-0.79199-6.69629 c1.58398-2.08887,4.6084-2.44824,6.69629-0.86426c6.48047,5.1123,10.22559,12.60059,10.22559,20.80957 C126.53467,114.60909,114.58154,126.48994,99.96436,126.48994z"
                transform="translate(224.99278 -125.18887)" stroke-width="0" stroke-linejoin="miter"
                stroke-miterlimit="2" fill="#6C5FFC" stroke="#6C5FFC"></path>
          <path class="c3"
                d="M99.96436,73.49287c2.66406,0,4.82422,2.16016,4.82422,4.8252c0,2.5918-2.16016,4.75195-4.82422,4.75195 c-2.59277,0-4.75293-2.16016-4.75293-4.75195C95.21143,75.65303,97.37158,73.49287,99.96436,73.49287z"
                transform="translate(224.99278 -125.18887)" stroke-width="0" stroke-linejoin="miter"
                stroke-miterlimit="2" fill="#3ac37b" stroke="#3ac37b"></path>
        </g>
        <g id="path413817" aria-label="M"
           transform="translate(0 305.236) translate(372.4869262999999 55.84006896999999) scale(0.91) translate(-361.55937 50.391133)">
          <path class="c1"
                d="M117.89355,95.59932l-14.04102,27.14648c-0.86426,1.51172-2.44824,2.44824-4.17676,2.44824 c-1.72754,0-3.31152-0.93652-4.17578-2.52051L82.10645,96.03096v24.41016c0,2.59277-2.16016,4.75293-4.82422,4.75293 c-2.59277,0-4.75293-2.16016-4.75293-4.75293V79.5417c0-2.16016,1.44043-4.03223,3.60059-4.6084 c2.08789-0.50391,4.32031,0.43262,5.3291,2.37598l18.28906,34.70703l18.79395-34.77832 c1.00781-1.87207,3.24023-2.80859,5.32813-2.30469c2.08789,0.57617,3.60059,2.44824,3.60059,4.6084v26.57031 c0,2.59277-2.16016,4.75293-4.82422,4.75293c-2.59277,0-4.75293-2.16016-4.75293-4.75293V95.59932z"
                transform="translate(289.03007 -125.18939)" stroke-width="0" stroke-linejoin="miter"
                stroke-miterlimit="2" fill="#6C5FFC" stroke="#6C5FFC"></path>
          <path class="c3"
                d="M122.64648,125.19405c-2.59277,0-4.75293-2.16016-4.75293-4.75293 c0-2.66406,2.16016-4.82422,4.75293-4.82422c2.66406,0,4.82422,2.16016,4.82422,4.82422 C127.4707,123.03389,125.31055,125.19405,122.64648,125.19405z"
                transform="translate(289.03007 -125.18939)" stroke-width="0" stroke-linejoin="miter"
                stroke-miterlimit="2" fill="#3ac37b" stroke="#3ac37b"></path>
        </g>
        <g id="path413819" aria-label="E"
           transform="translate(0 305.236) translate(434.9203245999999 55.832) scale(0.91) translate(-430.1675 50.4)">
          <path class="c1"
                d="M87.75879,125.19405c-2.5918,0-4.75195-2.16016-4.75195-4.75293V79.5417 c0-2.5918,2.16016-4.75195,4.75195-4.75195h9.9375c2.5918,0,4.75195,2.16016,4.75195,4.75195 c0,2.66406-2.16016,4.82422-4.75195,4.82422h-5.1123V95.3835h16.70508c2.66406,0,4.75195,1.94434,4.75195,4.6084 c0,2.5918-2.08789,4.53613-4.75195,4.53613H92.58398v11.08887h19.65723c2.66406,0,4.75195,2.16016,4.75195,4.82422 c0,2.59277-2.08789,4.75293-4.75195,4.75293H87.75879z"
                transform="translate(347.16066 -125.18975)" stroke-width="0" stroke-linejoin="miter"
                stroke-miterlimit="2" fill="#6C5FFC" stroke="#6C5FFC"></path>
          <path class="c3"
                d="M112.02539,84.36592c-2.66406,0-4.82422-2.16016-4.82422-4.82422c0-2.5918,2.16016-4.75195,4.82422-4.75195 c2.5918,0,4.75195,2.16016,4.75195,4.75195C116.77734,82.20576,114.61719,84.36592,112.02539,84.36592z"
                transform="translate(347.16066 -125.18975)" stroke-width="0" stroke-linejoin="miter"
                stroke-miterlimit="2" fill="#3ac37b" stroke="#3ac37b"></path>
        </g>
        <g id="path413821" aria-label="P"
           transform="translate(0 305.236) translate(502.1039228999999 55.832) scale(0.91) translate(-503.99563 50.4)">
          <path class="c1"
                d="M116.52588,101.7917c-1.36816,2.23242-4.32031,2.95215-6.55273,1.51172 c-2.30469-1.36719-2.95215-4.32031-1.58398-6.55176c0.86426-1.44043,1.44043-3.09668,1.44043-4.6084 c0-1.87207-0.43262-7.77734-6.19336-7.77734H90.24365v36.0752c0,2.59277-2.16016,4.75293-4.82422,4.75293 c-2.59277,0-4.75293-2.16016-4.75293-4.75293V79.5417c0-2.5918,2.16016-4.75195,4.75293-4.75195h18.2168 c10.80176,0,15.69727,9,15.69727,17.35352C119.3335,95.3835,118.32568,98.83955,116.52588,101.7917z"
                transform="translate(423.32913 -125.18975)" stroke-width="0" stroke-linejoin="miter"
                stroke-miterlimit="2" fill="#6C5FFC" stroke="#6C5FFC"></path>
          <path class="c3"
                d="M99.74854,109.35225c-2.59277,0-4.75293-2.16016-4.75293-4.82422c0-2.5918,2.16016-4.75195,4.75293-4.75195 c2.66406,0,4.75195,2.16016,4.75195,4.75195C104.50049,107.19209,102.4126,109.35225,99.74854,109.35225z"
                transform="translate(423.32913 -125.18975)" stroke-width="0" stroke-linejoin="miter"
                stroke-miterlimit="2" fill="#3ac37b" stroke="#3ac37b"></path>
        </g>
        <g id="path413823" aria-label="O"
           transform="translate(0 305.236) translate(542.2093246 54.65264) scale(0.91) translate(-548.0675 51.696)">
          <path class="c1"
                d="M99.96436,126.48994c-14.61719,0-26.49902-11.88086-26.49902-26.57031 c0-8.20898,3.74512-15.69727,10.22559-20.80957c2.01563-1.58398,5.04004-1.22461,6.69629,0.86426 c1.58398,2.01563,1.22363,5.04004-0.86426,6.69629c-4.10449,3.24023-6.48047,7.99219-6.48047,13.24902 c0,9.36035,7.56055,16.99316,16.92188,16.99316c9.36035,0,16.99316-7.63281,16.99316-16.99316 c0-5.25684-2.37598-10.00879-6.55273-13.24902c-2.08789-1.65625-2.44824-4.68066-0.79199-6.69629 c1.58398-2.08887,4.6084-2.44824,6.69629-0.86426c6.48047,5.1123,10.22559,12.60059,10.22559,20.80957 C126.53467,114.60909,114.58154,126.48994,99.96436,126.48994z"
                transform="translate(474.60216 -125.18887)" stroke-width="0" stroke-linejoin="miter"
                stroke-miterlimit="2" fill="#6C5FFC" stroke="#6C5FFC"></path>
          <path class="c3"
                d="M99.96436,73.49287c2.66406,0,4.82422,2.16016,4.82422,4.8252c0,2.5918-2.16016,4.75195-4.82422,4.75195 c-2.59277,0-4.75293-2.16016-4.75293-4.75195C95.21143,75.65303,97.37158,73.49287,99.96436,73.49287z"
                transform="translate(474.60216 -125.18887)" stroke-width="0" stroke-linejoin="miter"
                stroke-miterlimit="2" fill="#3ac37b" stroke="#3ac37b"></path>
        </g>
        <g id="path413825" aria-label="R"
           transform="translate(0 305.236) translate(598.9762621 55.832) scale(0.91) translate(-610.44875 50.4)">
          <path class="c1"
                d="M117.85791,90.84639c0-9.79199-6.69727-16.05664-16.99414-16.05664H85.3833 c-2.59277,0-4.75293,2.16016-4.75293,4.75195v40.89941c0,2.59277,2.16016,4.75293,4.75293,4.75293 c2.66406,0,4.82422-2.16016,4.82422-4.75293v-12.96094h10.44043l2.16016,3.45605c1.36816,2.23242,4.32031,2.88086,6.55273,1.44043 c4.39258-2.80859,0.86426-7.41699,0.86426-7.41699C115.19385,102.15205,117.85791,97.03975,117.85791,90.84639z M100.64795,99.19991H90.20752V84.07784h10.65625c4.96875,0,7.41699,2.95313,7.41699,7.34473 C108.28076,95.45479,106.33643,99.19991,100.64795,99.19991z"
                transform="translate(529.81838 -125.18975)" stroke-width="0" stroke-linejoin="miter"
                stroke-miterlimit="2" fill="#6C5FFC" stroke="#6C5FFC"></path>
          <path class="c3"
                d="M114.61768,125.12178c-2.59277,0-4.75293-2.16016-4.75293-4.75195c0-2.66504,2.16016-4.8252,4.75293-4.8252 c2.66406,0,4.75195,2.16016,4.75195,4.8252C119.36963,122.96162,117.28174,125.12178,114.61768,125.12178z"
                transform="translate(529.81838 -125.18975)" stroke-width="0" stroke-linejoin="miter"
                stroke-miterlimit="2" fill="#3ac37b" stroke="#3ac37b"></path>
        </g>
        <g id="path413827" aria-label="T"
           transform="translate(0 305.236) translate(637.1877354000001 55.832) scale(0.91) translate(-652.43938 50.4)">
          <path class="c1"
                d="M104.75244,120.44112c0,2.59277-2.08789,4.75293-4.75293,4.75293 c-2.66406,0-4.75195-2.16016-4.75195-4.75293v-36.0752H84.80615c-2.5918,0-4.75195-2.16016-4.75195-4.82422 c0-2.5918,2.16016-4.75195,4.75195-4.75195h15.19336c2.88086,0,4.75293,2.16016,4.75293,4.75195V120.44112z"
                transform="translate(572.38518 -125.18975)" stroke-width="0" stroke-linejoin="miter"
                stroke-miterlimit="2" fill="#6C5FFC" stroke="#6C5FFC"></path>
          <path class="c3"
                d="M119.9458,79.5417c0,2.66406-2.16016,4.82422-4.75293,4.82422c-2.66406,0-4.82422-2.16016-4.82422-4.82422 c0-2.5918,2.16016-4.75195,4.82422-4.75195C117.78564,74.78975,119.9458,76.94991,119.9458,79.5417z"
                transform="translate(572.38518 -125.18975)" stroke-width="0" stroke-linejoin="miter"
                stroke-miterlimit="2" fill="#3ac37b" stroke="#3ac37b"></path>
        </g>
        <g id="path413829" aria-label="A"
           transform="translate(0 305.236) translate(670.6271960000001 55.832) scale(0.91) translate(-689.18604 50.4)">
          <path class="c1"
                d="M117.13755,104.6003l-12.81689-27.07422c-0.79199-1.65625-2.52051-2.73633-4.32031-2.73633 c-1.87207,0-3.52832,1.08008-4.32031,2.73633l-19.44189,40.82715c-1.08008,2.37598-0.07178,5.25684,2.3042,6.4082 c2.37598,1.08008,5.18457,0.07227,6.33643-2.30371l4.53662-9.50488h24.19385c1.65625,0,3.09619-0.86426,3.96045-2.16016 C119.22593,108.34444,117.92954,106.25655,117.13755,104.6003z M93.30357,104.74385l6.69678-14.11328l6.76855,14.11328H93.30357z"
                transform="translate(613.380221 -125.18975)" stroke-width="0" stroke-linejoin="miter"
                stroke-miterlimit="2" fill="#6C5FFC" stroke="#6C5FFC"></path>
          <path class="c3"
                d="M124.19419,120.44112c0,2.59277-2.16016,4.75293-4.82422,4.75293 c-2.59229,0-4.75244-2.16016-4.75244-4.75293c0-2.66406,2.16016-4.82422,4.75244-4.82422 C122.03403,115.6169,124.19419,117.77705,124.19419,120.44112z"
                transform="translate(613.380221 -125.18975)" stroke-width="0" stroke-linejoin="miter"
                stroke-miterlimit="2" fill="#3ac37b" stroke="#3ac37b"></path>
        </g>
        <g id="path413831" aria-label="L"
           transform="translate(0 305.236) translate(722.4661104000002 55.832) scale(0.91) translate(-746.15188 50.4)">
          <path class="c1"
                d="M97.91162,125.19405H87.75928c-2.59277,0-4.75293-2.16016-4.75293-4.75293V79.5417 c0-2.5918,2.16016-4.75195,4.75293-4.75195c2.66406,0,4.82422,2.16016,4.82422,4.75195v36.0752h5.32813 c2.66406,0,4.75293,2.16016,4.75293,4.82422C102.66455,123.03389,100.57568,125.19405,97.91162,125.19405z"
                transform="translate(663.14553 -125.18975)" stroke-width="0" stroke-linejoin="miter"
                stroke-miterlimit="2" fill="#6C5FFC" stroke="#6C5FFC"></path>
          <path class="c3"
                d="M107.48877,120.44112c0-2.66406,2.08789-4.82422,4.75195-4.82422s4.75293,2.16016,4.75293,4.82422 c0,2.59277-2.08887,4.75293-4.75293,4.75293S107.48877,123.03389,107.48877,120.44112z"
                transform="translate(663.14553 -125.18975)" stroke-width="0" stroke-linejoin="miter"
                stroke-miterlimit="2" fill="#3ac37b" stroke="#3ac37b"></path>
        </g>
      </g>
      <image xlink:href="" id="icon" style="display: none;" x="0" y="0"></image>
    </g>
  </g>
</svg>
