<svg xmlns:dc="http://purl.org/dc/elements/1.1/" xmlns:cc="http://creativecommons.org/ns#"
     xmlns:rdf="http://www.w3.org/1999/02/22-rdf-syntax-ns#" xmlns:svg="http://www.w3.org/2000/svg"
     xmlns="http://www.w3.org/2000/svg" xmlns:xlink="http://www.w3.org/1999/xlink" id="svg444586" version="1.1"
     viewBox="277.61 350.72 468.79 66.57">
  <metadata id="metadata444592">
    <rdf:rdf>
      <cc:work rdf:about="">
        <dc:format>image/svg+xml</dc:format>
        <dc:type rdf:resource="http://purl.org/dc/dcmitype/StillImage"></dc:type>
      </cc:work>
    </rdf:rdf>
  </metadata>
  <defs id="defs444590"></defs>
  <linearGradient spreadMethod="pad" y2="30%" x2="-10%" y1="120%" x1="30%"
                  id="3d_gradient2-logo-943fe95f-2f4f-4fc4-b986-836c2cb01f2c">
    <stop id="stop444567" stop-opacity="1" stop-color="#ffffff" offset="0%"></stop>
    <stop id="stop444569" stop-opacity="1" stop-color="#000000" offset="100%"></stop>
  </linearGradient>
  <linearGradient gradientTransform="rotate(-30)" spreadMethod="pad" y2="30%" x2="-10%" y1="120%" x1="30%"
                  id="3d_gradient3-logo-943fe95f-2f4f-4fc4-b986-836c2cb01f2c">
    <stop id="stop444572" stop-opacity="1" stop-color="#ffffff" offset="0%"></stop>
    <stop id="stop444574" stop-opacity="1" stop-color="#cccccc" offset="50%"></stop>
    <stop id="stop444576" stop-opacity="1" stop-color="#000000" offset="100%"></stop>
  </linearGradient>
  <g id="logo-group">
    <image xlink:href="" id="container" x="272" y="144" width="480" height="480" style="display: none;"
           transform="translate(0 0)"></image>
    <g id="logo-center" transform="translate(5.684341886080802e-14 0)">
      <image xlink:href="" id="icon_container" style="display: none;" x="0" y="0"></image>
      <g id="slogan"
         style="font-style:normal;font-weight:400;font-size:32px;line-height:1;font-family:Arvo;font-variant-ligatures:none;text-align:center;text-anchor:middle"
         transform="translate(0 0)"></g>
      <g id="title"
         style="font-style:normal;font-weight:700;font-size:72px;line-height:1;font-family:'Comfortaa Bold Alt2';font-variant-ligatures:none;text-align:center;text-anchor:middle"
         transform="translate(0 0)">
        <path id="path444595"
              style="font-style:normal;font-weight:700;font-size:72px;line-height:1;font-family:'Comfortaa Bold Alt2';font-variant-ligatures:none;text-align:center;text-anchor:middle"
              d="m 322.1135,-55.152 c -0.72,0.72 -1.08,1.584 -1.08,2.664 v 20.664 h -33.408 v -20.664 c 0,-1.08 -0.36,-1.944 -1.08,-2.664 -0.72,-0.72 -1.584,-1.08 -2.664,-1.08 -1.08,0 -1.944,0.36 -2.664,1.08 -0.72,0.72 -1.08,1.584 -1.08,2.664 v 48.744 c 0,1.08 0.36,1.944 1.08,2.664 0.72,0.72 1.584,1.08 2.664,1.08 1.08,0 1.944,-0.36 2.664,-1.08 0.72,-0.72 1.08,-1.584 1.08,-2.664 V -25.2 h 33.408 v 21.456 c 0,1.08 0.36,1.944 1.08,2.664 0.72,0.72 1.584,1.08 2.664,1.08 1.008,0 1.872,-0.288 2.592,-1.008 0.72,-0.72 1.08,-1.584 1.08,-2.736 v -48.744 c 0,-1.08 -0.36,-1.944 -1.08,-2.664 -0.72,-0.72 -1.584,-1.08 -2.592,-1.08 -1.08,0 -1.944,0.36 -2.664,1.08 z"
              stroke-width="0" stroke-linejoin="miter" stroke-miterlimit="2" fill="#7590c6" stroke="#7590c6"
              transform="translate(0 295.65496) translate(277.60731875 55.06088) scale(0.91) translate(-280.1375 56.232)"></path>
        <path id="path444597"
              style="font-style:normal;font-weight:700;font-size:72px;line-height:1;font-family:'Comfortaa Bold Alt2';font-variant-ligatures:none;text-align:center;text-anchor:middle"
              d="m 359.92025,0.288 c 5.544,0 10.224,-1.944 14.112,-5.832 3.888,-3.888 5.904,-8.568 5.904,-14.112 0,-5.544 -2.016,-10.224 -5.904,-14.112 -3.888,-3.888 -8.568,-5.904 -14.112,-5.904 -5.544,0 -10.224,2.016 -14.112,5.904 -3.888,3.888 -5.832,8.568 -5.832,14.112 0,5.544 1.944,10.224 5.832,14.112 3.888,3.888 8.568,5.832 14.112,5.832 z m 0,-33.048 c 3.6,0 6.696,1.296 9.288,3.816 2.52,2.592 3.816,5.688 3.816,9.288 0,3.6 -1.296,6.696 -3.816,9.216 -2.592,2.592 -5.688,3.816 -9.288,3.816 -3.6,0 -6.696,-1.224 -9.216,-3.816 -2.592,-2.52 -3.816,-5.616 -3.816,-9.216 0,-3.6 1.224,-6.696 3.816,-9.288 2.52,-2.52 5.616,-3.816 9.216,-3.816 z"
              stroke-width="0" stroke-linejoin="miter" stroke-miterlimit="2" fill="#849ccc" stroke="#849ccc"
              transform="translate(0 295.65496) translate(336.61058125 70.13048) scale(0.91) translate(-339.97625 39.672)"></path>
        <path id="path444599"
              style="font-style:normal;font-weight:700;font-size:72px;line-height:1;font-family:'Comfortaa Bold Alt2';font-variant-ligatures:none;text-align:center;text-anchor:middle"
              d="m 441.4805,-36.144 c -3.024,-3.024 -6.696,-4.536 -11.016,-4.536 -4.32,0 -7.992,1.512 -11.016,4.536 -0.36,0.36 -0.648,0.72 -1.008,1.08 -0.288,-0.36 -0.648,-0.72 -0.936,-1.08 -3.096,-3.024 -6.768,-4.536 -11.088,-4.536 -4.32,0 -7.992,1.512 -11.016,4.536 -3.024,3.096 -4.536,6.768 -4.536,11.088 v 21.6 c 0,1.008 0.288,1.8 1.008,2.52 0.72,0.72 1.584,1.08 2.592,1.08 0.936,0 1.8,-0.36 2.52,-1.08 0.72,-0.72 1.08,-1.512 1.08,-2.52 v -21.6 c 0,-2.304 0.792,-4.32 2.448,-5.976 1.656,-1.656 3.6,-2.448 5.904,-2.448 2.376,0 4.32,0.792 5.976,2.448 1.656,1.656 2.448,3.672 2.448,5.976 v 21.6 c 0,1.008 0.36,1.8 1.08,2.52 0.72,0.72 1.512,1.08 2.52,1.08 1.008,0 1.872,-0.36 2.52,-1.08 0.72,-0.72 1.08,-1.512 1.08,-2.52 v -21.6 c 0,-1.512 0.36,-2.952 1.152,-4.248 0.72,-1.296 1.728,-2.304 3.024,-3.024 1.296,-0.792 2.736,-1.152 4.248,-1.152 2.304,0 4.32,0.792 5.904,2.448 1.656,1.656 2.52,3.672 2.52,5.976 v 21.6 c 0,1.008 0.288,1.8 1.008,2.52 0.72,0.72 1.584,1.08 2.592,1.08 0.936,0 1.8,-0.36 2.52,-1.08 0.72,-0.72 1.08,-1.512 1.08,-2.52 v -21.6 c 0,-4.32 -1.584,-7.992 -4.608,-11.088 z"
              stroke-width="0" stroke-linejoin="miter" stroke-miterlimit="2" fill="#94a9d3" stroke="#94a9d3"
              transform="translate(0 295.65496) translate(387.4688887500001 69.2132) scale(0.91) translate(-390.8645 40.68)"></path>
        <path id="path444601"
              style="font-style:normal;font-weight:700;font-size:72px;line-height:1;font-family:'Comfortaa Bold Alt2';font-variant-ligatures:none;text-align:center;text-anchor:middle"
              d="m 475.2125,0.288 c 4.752,0 8.928,-1.44 12.6,-4.464 0.792,-0.576 1.152,-1.368 1.296,-2.304 0.072,-1.008 -0.144,-1.8 -0.792,-2.592 -0.576,-0.72 -1.368,-1.152 -2.304,-1.224 -0.936,-0.072 -1.8,0.144 -2.52,0.792 -2.448,1.944 -5.184,2.88 -8.28,2.88 -3.6,0 -6.696,-1.224 -9.216,-3.816 -2.592,-2.52 -3.816,-5.616 -3.816,-9.216 0,-3.6 1.224,-6.696 3.816,-9.288 2.52,-2.52 5.616,-3.816 9.216,-3.816 2.952,0 5.616,0.936 7.992,2.736 2.304,1.8 3.816,4.104 4.608,6.912 h -12.6 c -0.936,0 -1.8,0.36 -2.448,1.008 -0.648,0.648 -1.008,1.512 -1.008,2.448 0,0.936 0.36,1.8 1.008,2.448 0.648,0.648 1.512,1.008 2.448,1.008 h 16.56 c 0.936,0 1.728,-0.36 2.376,-1.008 0.72,-0.648 1.08,-1.512 1.08,-2.448 0,-5.544 -2.016,-10.224 -5.904,-14.112 -3.888,-3.888 -8.568,-5.904 -14.112,-5.904 -5.544,0 -10.224,2.016 -14.112,5.904 -3.888,3.888 -5.832,8.568 -5.832,14.112 0,5.544 1.944,10.224 5.832,14.112 3.888,3.888 8.568,5.832 14.112,5.832 z"
              stroke-width="0" stroke-linejoin="miter" stroke-miterlimit="2" fill="#a3b5d9" stroke="#a3b5d9"
              transform="translate(0 295.65496) translate(450.6265287500001 70.13048) scale(0.91) translate(-455.2685 39.672)"></path>
        <path id="path444603"
              style="font-style:normal;font-weight:700;font-size:72px;line-height:1;font-family:'Comfortaa Bold Alt2';font-variant-ligatures:none;text-align:center;text-anchor:middle"
              d="m 558.161,-33.768 c -3.888,-3.888 -8.568,-5.832 -14.112,-5.832 -5.544,0 -10.224,1.944 -14.112,5.832 -3.888,3.888 -5.832,8.64 -5.832,14.112 v 33.12 c 0,1.008 0.288,1.8 1.008,2.448 0.648,0.72 1.44,1.008 2.448,1.008 0.936,0 1.728,-0.288 2.376,-1.008 0.72,-0.648 1.08,-1.44 1.08,-2.448 v -18 c 3.672,3.24 8.064,4.896 13.032,4.896 5.544,0 10.224,-1.944 14.112,-5.832 3.888,-3.96 5.904,-8.64 5.904,-14.184 0,-5.472 -2.016,-10.224 -5.904,-14.112 z m -14.112,27.216 c -3.6,0 -6.696,-1.296 -9.216,-3.816 -2.592,-2.592 -3.816,-5.688 -3.816,-9.288 0,-2.304 0.576,-4.536 1.728,-6.552 1.152,-2.016 2.736,-3.6 4.752,-4.752 2.016,-1.152 4.176,-1.728 6.552,-1.728 3.6,0 6.696,1.296 9.216,3.816 2.592,2.592 3.888,5.616 3.888,9.216 0,3.6 -1.296,6.696 -3.888,9.288 -2.52,2.52 -5.616,3.816 -9.216,3.816 z"
              stroke-width="0" stroke-linejoin="miter" stroke-miterlimit="2" fill="#b2c1df" stroke="#b2c1df"
              transform="translate(0 295.65496) translate(517.8177437500001 70.196) scale(0.91) translate(-524.105 39.6)"></path>
        <path id="path444605"
              style="font-style:normal;font-weight:700;font-size:72px;line-height:1;font-family:'Comfortaa Bold Alt2';font-variant-ligatures:none;text-align:center;text-anchor:middle"
              d="m 592.514,0.288 c 5.544,0 10.224,-1.944 14.112,-5.832 3.888,-3.888 5.904,-8.568 5.904,-14.112 0,-5.544 -2.016,-10.224 -5.904,-14.112 -3.888,-3.888 -8.568,-5.904 -14.112,-5.904 -5.544,0 -10.224,2.016 -14.112,5.904 -3.888,3.888 -5.832,8.568 -5.832,14.112 0,5.544 1.944,10.224 5.832,14.112 3.888,3.888 8.568,5.832 14.112,5.832 z m 0,-33.048 c 3.6,0 6.696,1.296 9.288,3.816 2.52,2.592 3.816,5.688 3.816,9.288 0,3.6 -1.296,6.696 -3.816,9.216 -2.592,2.592 -5.688,3.816 -9.288,3.816 -3.6,0 -6.696,-1.224 -9.216,-3.816 -2.592,-2.52 -3.816,-5.616 -3.816,-9.216 0,-3.6 1.224,-6.696 3.816,-9.288 2.52,-2.52 5.616,-3.816 9.216,-3.816 z"
              stroke-width="0" stroke-linejoin="miter" stroke-miterlimit="2" fill="#c2cee6" stroke="#c2cee6"
              transform="translate(0 295.65496) translate(566.4708937500001 70.13048) scale(0.91) translate(-572.57 39.672)"></path>
        <path id="path444607"
              style="font-style:normal;font-weight:700;font-size:72px;line-height:1;font-family:'Comfortaa Bold Alt2';font-variant-ligatures:none;text-align:center;text-anchor:middle"
              d="m 645.34625,-40.464 c -6.048,0 -11.16,2.16 -15.48,6.408 -4.248,4.248 -6.336,9.36 -6.336,15.408 v 15.192 c 0,1.008 0.288,1.8 1.008,2.448 0.648,0.72 1.44,1.008 2.448,1.008 0.936,0 1.728,-0.288 2.376,-1.008 0.72,-0.648 1.08,-1.44 1.08,-2.448 v -15.192 c 0,-4.104 1.44,-7.632 4.32,-10.512 2.952,-2.952 6.48,-4.392 10.584,-4.392 0.936,0 1.728,-0.36 2.448,-1.008 0.648,-0.72 1.008,-1.512 1.008,-2.448 0,-0.936 -0.36,-1.8 -1.008,-2.448 -0.72,-0.648 -1.512,-1.008 -2.448,-1.008 z"
              stroke-width="0" stroke-linejoin="miter" stroke-miterlimit="2" fill="#d1daec" stroke="#d1daec"
              transform="translate(0 295.65496) translate(617.3947212500001 69.40976) scale(0.91) translate(-623.53025 40.464)"></path>
        <path id="path444609"
              style="font-style:normal;font-weight:700;font-size:72px;line-height:1;font-family:'Comfortaa Bold Alt2';font-variant-ligatures:none;text-align:center;text-anchor:middle"
              d="m 674.81787,-7.2 c -2.088,0 -3.88799,-0.72 -5.328,-2.232 -1.51199,-1.44 -2.23199,-3.24 -2.23199,-5.328 v -16.92 h 6.408 c 0.86399,0 1.65599,-0.288 2.30399,-0.936 0.57601,-0.576 0.93601,-1.368 0.93601,-2.304 0,-0.864 -0.36,-1.656 -0.93601,-2.304 -0.648,-0.576 -1.44,-0.936 -2.30399,-0.936 h -6.408 v -10.152 c 0,-1.008 -0.36001,-1.8 -1.08001,-2.52 -0.72,-0.72 -1.51199,-1.08 -2.52,-1.08 -1.008,0 -1.87199,0.36 -2.592,1.08 -0.72,0.72 -1.008,1.512 -1.008,2.52 v 33.552 c 0,4.104 1.44001,7.56 4.32001,10.44 2.88,2.88 6.336,4.32 10.43999,4.32 1.008,0 1.80001,-0.288 2.52,-1.008 0.72,-0.72 1.08,-1.584 1.08,-2.592 0,-1.008 -0.36,-1.8 -1.08,-2.52 -0.71999,-0.72 -1.512,-1.08 -2.52,-1.08 z"
              stroke-width="0" stroke-linejoin="miter" stroke-miterlimit="2" fill="#e0e6f2" stroke="#e0e6f2"
              transform="translate(0 295.65496) translate(655.18485545 58.99208) scale(0.91) translate(-660.05787 51.912)"></path>
        <path id="path444611"
              style="font-style:normal;font-weight:700;font-size:72px;line-height:1;font-family:'Comfortaa Bold Alt2';font-variant-ligatures:none;text-align:center;text-anchor:middle"
              d="m 719.054,-33.768 c -3.888,-3.888 -8.568,-5.904 -14.112,-5.904 -5.472,0 -10.224,2.016 -14.112,5.904 -3.888,3.888 -5.832,8.568 -5.832,14.112 0,5.544 1.944,10.224 5.832,14.112 3.888,3.888 8.64,5.832 14.112,5.832 4.968,0 9.36,-1.584 13.104,-4.824 v 1.368 c 0,1.008 0.288,1.8 1.008,2.448 0.648,0.72 1.44,1.008 2.448,1.008 0.936,0 1.728,-0.288 2.448,-1.008 0.648,-0.648 1.008,-1.44 1.008,-2.448 v -16.488 c 0,-5.544 -1.944,-10.224 -5.904,-14.112 z m -14.112,27.144 c -3.6,0 -6.696,-1.224 -9.216,-3.816 -2.592,-2.52 -3.816,-5.616 -3.816,-9.216 0,-3.6 1.224,-6.696 3.816,-9.216 2.52,-2.592 5.616,-3.888 9.216,-3.888 3.6,0 6.696,1.296 9.216,3.888 2.592,2.52 3.888,5.616 3.888,9.216 0,3.6 -1.296,6.696 -3.888,9.216 -2.52,2.592 -5.616,3.816 -9.216,3.816 z"
              stroke-width="0" stroke-linejoin="miter" stroke-miterlimit="2" fill="#f0f3f9" stroke="#f0f3f9"
              transform="translate(0 295.65496) translate(682.43037375 70.13048) scale(0.91) translate(-684.998 39.672)"></path>
        <path id="path444613"
              style="font-style:normal;font-weight:700;font-size:72px;line-height:1;font-family:'Comfortaa Bold Alt2';font-variant-ligatures:none;text-align:center;text-anchor:middle"
              d="m 735.45425,-55.224 c -0.72,0.72 -1.008,1.584 -1.008,2.592 v 39.312 c 0,2.592 0.432,4.896 1.368,6.912 0.864,2.016 2.16,3.6 3.816,4.752 1.656,1.152 3.528,1.656 5.616,1.656 h 0.144 c 1.44,0 2.592,-0.288 3.528,-1.008 0.864,-0.648 1.368,-1.512 1.368,-2.592 0,-1.008 -0.36,-1.872 -0.936,-2.592 -0.576,-0.648 -1.368,-1.008 -2.304,-1.008 h -1.8 c -1.08,0 -1.944,-0.576 -2.592,-1.728 -0.72,-1.152 -1.008,-2.592 -1.008,-4.392 v -39.312 c 0,-1.008 -0.36,-1.872 -1.008,-2.592 -0.72,-0.648 -1.584,-1.008 -2.592,-1.008 -1.08,0 -1.944,0.36 -2.592,1.008 z"
              stroke-width="0" stroke-linejoin="miter" stroke-miterlimit="2" fill="#ffffff" stroke="#ffffff"
              transform="translate(0 295.65496) translate(731.9782812499999 55.06088) scale(0.91) translate(-734.44625 56.232)"></path>
      </g>
      <image xlink:href="" id="icon" style="display: none;" x="0" y="0"></image>
    </g>
  </g>
</svg>
