<svg xmlns:dc="http://purl.org/dc/elements/1.1/" xmlns:cc="http://creativecommons.org/ns#"
     xmlns:rdf="http://www.w3.org/1999/02/22-rdf-syntax-ns#" xmlns:svg="http://www.w3.org/2000/svg"
     xmlns="http://www.w3.org/2000/svg" xmlns:xlink="http://www.w3.org/1999/xlink" id="svg17638" version="1.1"
     viewBox="253.92 360.94 516.16 46.13">
  <metadata id="metadata17644">
    <rdf:rdf>
      <cc:work rdf:about="">
        <dc:format>image/svg+xml</dc:format>
        <dc:type rdf:resource="http://purl.org/dc/dcmitype/StillImage"></dc:type>
      </cc:work>
    </rdf:rdf>
  </metadata>
  <defs id="defs17642"></defs>
  <linearGradient spreadMethod="pad" y2="30%" x2="-10%" y1="120%" x1="30%"
                  id="3d_gradient2-logo-5086066e-a5aa-4e3d-8e75-d065a9f81ce5">
    <stop id="stop17619" stop-opacity="1" stop-color="#ffffff" offset="0%"></stop>
    <stop id="stop17621" stop-opacity="1" stop-color="#000000" offset="100%"></stop>
  </linearGradient>
  <linearGradient gradientTransform="rotate(-30)" spreadMethod="pad" y2="30%" x2="-10%" y1="120%" x1="30%"
                  id="3d_gradient3-logo-5086066e-a5aa-4e3d-8e75-d065a9f81ce5">
    <stop id="stop17624" stop-opacity="1" stop-color="#ffffff" offset="0%"></stop>
    <stop id="stop17626" stop-opacity="1" stop-color="#cccccc" offset="50%"></stop>
    <stop id="stop17628" stop-opacity="1" stop-color="#000000" offset="100%"></stop>
  </linearGradient>
  <g id="logo-group">
    <image xlink:href="" id="container" x="272" y="144" width="480" height="480" style="display: none;"
           transform="translate(0 0)"></image>
    <g id="logo-center" transform="translate(0 0)">
      <image xlink:href="" id="icon_container" style="display: none;" x="0" y="0"></image>
      <g id="slogan"
         style="font-style:oblique;font-weight:700;font-size:32px;line-height:1;font-family:'Uni Neue';font-variant-ligatures:none;text-align:center;text-anchor:middle"
         transform="translate(0 0)"></g>
      <g id="title"
         style="font-style:normal;font-weight:normal;font-size:72px;line-height:1;font-family:'Brandmark Stencil 1';font-variant-ligatures:normal;text-align:center;text-anchor:middle"
         transform="translate(0 0)">
        <path id="path17647"
              style="font-style:normal;font-weight:normal;font-size:72px;line-height:1;font-family:'Brandmark Stencil 1';font-variant-ligatures:normal;text-align:center;text-anchor:middle"
              d="m 233.189,-49.608 c -0.648,0 -1.224,0.504 -1.224,1.224 v 47.232 c 0,0.648 0.576,1.152 1.224,1.152 0.648,0 1.224,-0.504 1.224,-1.152 v -47.232 c 0,-0.72 -0.576,-1.224 -1.224,-1.224 z m 36.288,0 c -0.72,0 -1.224,0.504 -1.224,1.224 v 47.232 c 0,0.648 0.504,1.152 1.224,1.152 0.648,0 1.224,-0.504 1.224,-1.152 v -47.232 c 0,-0.72 -0.576,-1.224 -1.224,-1.224 z m -6.192,22.752 h -23.904 c -0.648,0 -1.224,0.576 -1.224,1.224 0,0.72 0.576,1.224 1.224,1.224 h 23.904 c 0.648,0 1.152,-0.504 1.152,-1.224 0,-0.648 -0.504,-1.224 -1.152,-1.224 z"
              stroke-width="0" stroke-linejoin="miter" stroke-miterlimit="2" fill="#e9dfd8" stroke="#e9dfd8"
              transform="translate(0 306.37504) translate(253.91979352499993 55.544720000000005) scale(0.91) translate(-231.965 49.608)"></path>
        <path id="path17649"
              style="font-style:normal;font-weight:normal;font-size:72px;line-height:1;font-family:'Brandmark Stencil 1';font-variant-ligatures:normal;text-align:center;text-anchor:middle"
              d="m 315.16212,-49.608 c -13.68,0 -24.83999,11.16 -24.83999,24.84 0,13.68 11.15999,24.768 24.83999,24.768 13.68,0 24.84,-11.088 24.84,-24.768 0,-13.752 -11.16,-24.84 -24.84,-24.84 z m 0,47.232 c -12.384,0 -22.392,-10.08 -22.392,-22.392 0,-12.384 10.008,-22.392 22.392,-22.392 12.31201,0 22.392,10.008 22.392,22.392 0,12.312 -10.07999,22.392 -22.392,22.392 z"
              stroke-width="0" stroke-linejoin="miter" stroke-miterlimit="2" fill="#e9dfd8" stroke="#e9dfd8"
              transform="translate(0 306.37504) translate(307.0247818249999 55.544720000000005) scale(0.91) translate(-290.32213 49.608)"></path>
        <path id="path17651"
              style="font-style:normal;font-weight:normal;font-size:72px;line-height:1;font-family:'Brandmark Stencil 1';font-variant-ligatures:normal;text-align:center;text-anchor:middle"
              d="m 382.42137,-0.72 20.88,-46.44 h 51.19201 c 0.648,0 1.22399,-0.576 1.22399,-1.224 0,-0.72 -0.57599,-1.224 -1.22399,-1.224 h -51.98401 c -0.43199,0 -0.864,0.288 -1.08,0.72 l -20.088,44.712 -20.088,-44.712 c -0.216,-0.504 -0.792,-0.792 -1.368,-0.72 -0.504,0.144 -0.936,0.648 -0.936,1.224 v 47.232 c 0,0.648 0.576,1.152 1.22401,1.152 0.64799,0 1.22399,-0.504 1.22399,-1.152 v -41.616 l 18.864,42.048 v 0.072 c 0.072,0.072 0.072,0.144 0.144,0.216 v 0.072 c 0.072,0.072 0.144,0.144 0.288,0.144 0,0.072 0,0.072 0.072,0.072 0,0 0.072,0.072 0.072,0.072 h 0.14401 c 0,0 0,0.072 0.072,0.072 h 0.28799 0.288 c 0.072,0 0.072,-0.072 0.072,-0.072 0.072,0 0.072,0 0.144,0 l 0.072,-0.072 c 0.072,0 0.072,0 0.072,-0.072 0.144,0 0.216,-0.072 0.288,-0.144 v -0.072 c 0.072,-0.072 0.072,-0.144 0.144,-0.216 z m 20.088,-37.728 c -0.648,0 -1.224,0.504 -1.224,1.224 v 36.072 c 0,0.648 0.576,1.152 1.224,1.152 0.648,0 1.22401,-0.504 1.22401,-1.152 v -36.072 c 0,-0.72 -0.57601,-1.224 -1.22401,-1.224 z m 51.48,11.664 h -27.144 c -0.71999,0 -1.224,0.576 -1.224,1.224 0,0.648 0.50401,1.224 1.224,1.224 h 27.144 c 0.64801,0 1.224,-0.576 1.224,-1.224 0,-0.648 -0.57599,-1.224 -1.224,-1.224 z m 0.50401,24.408 h -27.64801 c -0.71999,0 -1.224,0.504 -1.224,1.224 0,0.648 0.50401,1.152 1.224,1.152 h 27.64801 c 0.648,0 1.22399,-0.504 1.22399,-1.152 0,-0.72 -0.57599,-1.224 -1.22399,-1.224 z"
              stroke-width="0" stroke-linejoin="miter" stroke-miterlimit="2" fill="#e9dfd8" stroke="#e9dfd8"
              transform="translate(0 306.37504) translate(369.47557022499984 55.53475641) scale(0.91) translate(-358.94937 49.618949)"></path>
        <path id="path17653"
              style="font-style:normal;font-weight:normal;font-size:72px;line-height:1;font-family:'Brandmark Stencil 1';font-variant-ligatures:normal;text-align:center;text-anchor:middle"
              d="m 509.65775,-49.608 c -0.648,0 -1.224,0.504 -1.224,1.224 v 47.232 c 0,0.648 0.576,1.152 1.224,1.152 0.648,0 1.224,-0.504 1.224,-1.152 v -47.232 c 0,-0.72 -0.576,-1.224 -1.224,-1.224 z m 16.2,0 h -10.008 c -0.648,0 -1.224,0.504 -1.224,1.224 0,0.648 0.576,1.224 1.224,1.224 h 10.008 c 6.408,-0.072 11.592,5.184 11.592,11.592 0,6.336 -5.184,11.592 -11.592,11.592 h -10.008 c -0.648,0 -1.224,0.504 -1.224,1.224 0,0.648 0.576,1.152 1.224,1.152 h 10.008 c 7.704,0.072 14.04,-6.264 14.04,-13.968 0,-7.776 -6.336,-14.04 -14.04,-14.04 z"
              stroke-width="0" stroke-linejoin="miter" stroke-miterlimit="2" fill="#e9dfd8" stroke="#e9dfd8"
              transform="translate(0 306.37504) translate(505.50635602499983 55.544720000000005) scale(0.91) translate(-508.43375 49.608)"></path>
        <path id="path17655"
              style="font-style:normal;font-weight:normal;font-size:72px;line-height:1;font-family:'Brandmark Stencil 1';font-variant-ligatures:normal;text-align:center;text-anchor:middle"
              d="M 654.1325,-1.872 640.2365,-21.6 h 0.792 c 7.704,0 13.968,-6.264 13.968,-13.968 0,-7.776 -6.264,-14.04 -13.968,-14.04 h -61.632 c -13.68,0 -24.84,11.16 -24.84,24.84 0,13.68 11.16,24.768 24.84,24.768 13.68,0 24.84,-11.088 24.84,-24.768 0,-5.688 -1.872,-11.016 -5.4,-15.408 -0.36,-0.504 -1.152,-0.576 -1.656,-0.216 -0.504,0.432 -0.648,1.224 -0.216,1.728 3.168,3.96 4.824,8.784 4.824,13.896 0,12.312 -10.08,22.392 -22.392,22.392 -12.384,0 -22.392,-10.08 -22.392,-22.392 0,-12.384 10.008,-22.392 22.392,-22.392 h 61.632 c 6.336,0 11.592,5.184 11.592,11.592 0,6.336 -5.256,11.592 -11.592,11.592 h -3.096 c -0.072,0 -0.144,0 -0.216,0 h -0.072 c 0,0 -0.072,0 -0.144,0.072 0,0 -0.072,0 -0.072,0 l -0.072,0.072 c -0.072,0 -0.072,0 -0.144,0.072 l -0.072,0.072 c -0.072,0 -0.072,0 -0.072,0.072 -0.072,0 -0.072,0.072 -0.144,0.072 v 0.072 c -0.072,0.072 -0.072,0.144 -0.072,0.144 -0.072,0.072 -0.072,0.072 -0.072,0.072 v 0.144 c -0.072,0.072 -0.072,0.072 -0.072,0.072 v 0.216 c 0,0 0,0 0,0.072 0,0.072 0,0.144 0,0.216 0,0.072 0.072,0.144 0.072,0.216 0,0.072 0.072,0.072 0.072,0.144 0,0 0.072,0.072 0.072,0.072 l 15.264,21.6 c 0.216,0.36 0.576,0.504 0.936,0.504 0.288,0 0.504,-0.072 0.72,-0.216 0.576,-0.36 0.72,-1.152 0.288,-1.656 z m -29.376,-38.736 c -0.648,0 -1.152,0.504 -1.152,1.224 v 38.232 c 0,0.648 0.504,1.152 1.152,1.152 0.72,0 1.224,-0.504 1.224,-1.152 v -38.232 c 0,-0.72 -0.504,-1.224 -1.224,-1.224 z"
              stroke-width="0" stroke-linejoin="miter" stroke-miterlimit="2" fill="#e9dfd8" stroke="#e9dfd8"
              transform="translate(0 306.37504) translate(547.4780585249999 55.544720000000005) scale(0.91) translate(-554.5565 49.608)"></path>
        <path id="path17657"
              style="font-style:normal;font-weight:normal;font-size:72px;line-height:1;font-family:'Brandmark Stencil 1';font-variant-ligatures:normal;text-align:center;text-anchor:middle"
              d="m 703.41088,-49.608 h -35.928 c -0.64801,0 -1.22401,0.504 -1.22401,1.224 0,0.648 0.576,1.224 1.22401,1.224 h 35.928 c 0.64799,0 1.15199,-0.576 1.15199,-1.224 0,-0.72 -0.504,-1.224 -1.15199,-1.224 z m -18,6.192 c -0.64801,0 -1.22401,0.576 -1.22401,1.224 v 41.04 c 0,0.648 0.576,1.152 1.22401,1.152 0.72,0 1.22399,-0.504 1.22399,-1.152 v -41.04 c 0,-0.648 -0.50399,-1.224 -1.22399,-1.224 z"
              stroke-width="0" stroke-linejoin="miter" stroke-miterlimit="2" fill="#e9dfd8" stroke="#e9dfd8"
              transform="translate(0 306.37504) translate(649.127215225 55.544720000000005) scale(0.91) translate(-666.25887 49.608)"></path>
        <path id="path17659"
              style="font-style:normal;font-weight:normal;font-size:72px;line-height:1;font-family:'Brandmark Stencil 1';font-variant-ligatures:normal;text-align:center;text-anchor:middle"
              d="m 797.95025,-2.448 h -42.768 l -19.944,-47.52 c -0.216,-0.432 -0.648,-0.72 -1.08,-0.72 -0.504,0 -0.936,0.288 -1.152,0.72 l -20.304,48.312 c -0.216,0.648 0.072,1.296 0.648,1.584 0.216,0.072 0.36,0.072 0.504,0.072 0.504,0 0.936,-0.288 1.152,-0.72 l 19.152,-45.648 19.08,45.648 c 0.216,0.432 0.648,0.72 1.152,0.72 h 43.56 c 0.648,0 1.224,-0.504 1.224,-1.224 0,-0.648 -0.576,-1.224 -1.224,-1.224 z m -24.624,-5.4 c 0.648,0 1.224,-0.504 1.224,-1.224 v -39.6 c 0,-0.72 -0.576,-1.224 -1.224,-1.224 -0.72,0 -1.224,0.504 -1.224,1.224 v 39.6 c 0,0.72 0.504,1.224 1.224,1.224 z m -31.104,-8.064 h -16.2 c -0.648,0 -1.224,0.576 -1.224,1.224 0,0.648 0.576,1.224 1.224,1.224 h 16.2 c 0.648,0 1.224,-0.576 1.224,-1.224 0,-0.648 -0.576,-1.224 -1.224,-1.224 z"
              stroke-width="0" stroke-linejoin="miter" stroke-miterlimit="2" fill="#e9dfd8" stroke="#e9dfd8"
              transform="translate(0 306.37504) translate(691.325425825 54.56192) scale(0.91) translate(-712.63053 50.688)"></path>
      </g>
      <image xlink:href="" id="icon" style="display: none;" x="0" y="0"></image>
    </g>
  </g>
</svg>
