<svg xmlns:dc="http://purl.org/dc/elements/1.1/" xmlns:cc="http://creativecommons.org/ns#"
     xmlns:rdf="http://www.w3.org/1999/02/22-rdf-syntax-ns#" xmlns:svg="http://www.w3.org/2000/svg"
     xmlns="http://www.w3.org/2000/svg" xmlns:xlink="http://www.w3.org/1999/xlink" id="svg280242" version="1.1"
     viewBox="256.05 340.01 511.91 87.98">
  <metadata id="metadata280248">
    <rdf:rdf>
      <cc:work rdf:about="">
        <dc:format>image/svg+xml</dc:format>
        <dc:type rdf:resource="http://purl.org/dc/dcmitype/StillImage"></dc:type>
      </cc:work>
    </rdf:rdf>
  </metadata>
  <defs id="defs280246"></defs>
  <linearGradient spreadMethod="pad" y2="30%" x2="-10%" y1="120%" x1="30%"
                  id="3d_gradient2-logo-b171fde8-2e09-4b5a-aa25-059472d580f5">
    <stop id="stop280223" stop-opacity="1" stop-color="#ffffff" offset="0%"></stop>
    <stop id="stop280225" stop-opacity="1" stop-color="#000000" offset="100%"></stop>
  </linearGradient>
  <linearGradient gradientTransform="rotate(-30)" spreadMethod="pad" y2="30%" x2="-10%" y1="120%" x1="30%"
                  id="3d_gradient3-logo-b171fde8-2e09-4b5a-aa25-059472d580f5">
    <stop id="stop280228" stop-opacity="1" stop-color="#ffffff" offset="0%"></stop>
    <stop id="stop280230" stop-opacity="1" stop-color="#cccccc" offset="50%"></stop>
    <stop id="stop280232" stop-opacity="1" stop-color="#000000" offset="100%"></stop>
  </linearGradient>
  <g id="logo-group">
    <image xlink:href="" id="container" x="272" y="144" width="480" height="480" style="display: none;"
           transform="translate(0 0)"></image>
    <g id="logo-center" transform="translate(5.684341886080802e-14 0)">
      <image xlink:href="" id="icon_container" style="display: none;" x="0" y="0"></image>
      <g id="slogan"
         style="font-style:oblique;font-weight:normal;font-size:32px;line-height:1;font-family:'Crimson Text';font-variant-ligatures:none;text-align:center;text-anchor:middle"
         transform="translate(0 0)"></g>
      <g id="title"
         style="font-style:normal;font-weight:normal;font-size:72px;line-height:1;font-family:Daniel;font-variant-ligatures:none;text-align:center;text-anchor:middle"
         transform="translate(0 0)">
        <path id="path280251"
              style="font-style:normal;font-weight:normal;font-size:72px;line-height:1;font-family:Daniel;font-variant-ligatures:none;text-align:center;text-anchor:middle"
              d="m 354.88672,-50.414062 q 0,0.246093 -1.9336,2.355468 -1.96875,2.25 -2.07421,2.53125 -1.6875,4.464844 -3.19922,14.519532 -1.47657,9.632812 -1.47657,14.941406 0,1.125 -0.77343,2.109375 -0.0352,2.144531 -0.98438,9.035156 -0.42187,3.0234375 -0.42187,3.6914063 0,0.2460937 1.19531,4.2539062 -0.77344,0.2460938 -2.60156,0.5273438 -1.89844,-3.86718755 -1.89844,-5.484375 0,-0.6679688 0.63281,-7.2773438 0.63281,-6.2578125 1.23047,-14.6953125 h -5.69531 q -0.59766,0 -4.78125,0.703125 -4.1836,0.703125 -4.88672,0.703125 -0.49219,0 -2.17969,0 l -2.17969,-0.03516 q -3.41015,0 -5.20312,0.246094 -0.98438,0.140625 -2.98828,0.808593 -1.82813,0.632813 -2.95313,0.632813 -1.05468,0 -1.82812,-0.5625 -0.98438,0.632812 -2.88281,1.089844 l -2.98829,0.738281 q -1.26562,1.125 -1.26562,3.691406 0,0.316406 0.10547,2.074219 0.14062,1.792968 0.14062,2.074218 0,2.6718755 -2.21484,9.351563 -0.17578,0 -1.05469,0.070312 -0.8789,0.035156 -0.98437,0.035156 -0.5625,0 -1.05469,-0.1757812 0.87891,-5.34375 0.87891,-16.5937495 0,-0.316407 0.8789,-4.429688 2.63672,-12.480469 4.32422,-18.105469 1.16016,-2.109375 3.19922,-6.46875 h 2.10937 q 0.42188,1.652344 0.49219,1.652344 0,0 0,-0.140625 0,0.527344 -1.40625,3.65625 -1.47656,3.410156 -1.6875,4.21875 -2.42578,9.070313 -2.42578,12.269531 0,1.6875 1.30078,1.6875 1.61719,0 4.85156,-0.667968 3.55079,-0.667969 5.09766,-0.773438 5.48438,-0.316406 10.86328,-0.316406 0.73828,0 4.99219,0.140625 4.21875,0.175781 4.95703,0.175781 1.05469,0 3.30469,-0.246094 2.10937,-0.246093 3.26953,-0.316406 1.05469,-0.632812 1.75781,-6.257812 0.94922,-7.453125 1.9336,-10.722657 1.93359,-6.257812 5.9414,-8.507812 h 2.07422 q 0.38672,1.898437 0.45703,1.898437 0.0352,0 0.0352,-0.105468 z"
              stroke-width="0" stroke-linejoin="miter" stroke-miterlimit="2" fill="#93ef00" stroke="#93ef00"
              transform="translate(0 284.258474655) translate(256.04647945 66.40566324) scale(0.91) translate(-297.6875 52.207036)"></path>
        <path id="path280253"
              style="font-style:normal;font-weight:normal;font-size:72px;line-height:1;font-family:Daniel;font-variant-ligatures:none;text-align:center;text-anchor:middle"
              d="m 395.28125,-12.832031 q 0,3.7617185 -1.58203,6.4335935 -1.44141,2.4257812 -10.23047,4.78125 -7.83984,2.109375 -11.91797,2.109375 -4.78125,0 -9.45703,-2.2851562 -5.66016,-2.8125 -5.66016,-6.9960938 0,-1.8632815 2.14453,-3.7968755 1.89844,-1.371093 5.73047,-5.167968 2.53125,-3.09375 9.28125,-4.992188 5.69532,-1.617187 10.65235,-1.617187 1.33593,0 4.00781,1.160156 2.67187,1.230469 3.65625,2.25 0.98437,1.089844 2.17969,3.9375 1.19531,2.8125 1.19531,4.183594 z m -3.58594,-0.28125 q 0,-2.601563 -3.1289,-4.957031 -2.88282,-2.214844 -5.69532,-2.214844 -0.52734,0 -8.1914,1.511719 -2.95313,0.597656 -5.37891,2.285156 -8.29687,5.90625 -8.29687,8.1562497 0,1.8984376 4.53515,3.4453126 3.86719,1.3359374 6.29297,1.3359374 3.62109,0 10.16016,-1.4765624 5.97656,-1.3359375 8.50781,-4.0429688 1.19531,-1.2304685 1.19531,-4.0429685 z"
              stroke-width="0" stroke-linejoin="miter" stroke-miterlimit="2" fill="#9fe700" stroke="#9fe700"
              transform="translate(0 284.258474655) translate(323.15542135 91.74348029) scale(0.91) translate(-356.43359 24.363281)"></path>
        <path id="path280255"
              style="font-style:normal;font-weight:normal;font-size:72px;line-height:1;font-family:Daniel;font-variant-ligatures:none;text-align:center;text-anchor:middle"
              d="m 453.21875,-12.832031 q 0,1.019531 -0.24609,6.644531 -0.2461,5.66015625 -0.2461,6.64453125 -1.01953,0.0703125 -2.0039,0.94921875 -2.56641,-2.07421875 -2.56641,-6.3984375 0,-0.4570312 0.21094,-3.2695313 0.24609,-2.8125002 0.24609,-3.3046872 0,-2.109375 -0.66797,-3.339844 h -1.23047 q -1.54687,0 -11.88281,6.3632812 l -10.26562,6.3632813 q -1.54688,0 -4.1836,-1.96875 -0.0703,-0.3164062 -0.0703,-0.703125 0,-0.421875 0.31641,-2.953125 0.3164,-2.5312505 0.3164,-2.9882815 0,-2.214844 -0.98437,-3.621094 h -1.19532 q -1.58203,0 -15.39843,12.6210943 h -2.03907 q -0.91406,-1.3710938 -0.91406,-2.0039063 0,-0.984375 4.57031,-3.9023437 0.66797,-0.4218751 8.01563,-7.1015623 5.55469,-5.027344 8.61328,-5.027344 3.30469,0 3.30469,7.628906 0,0.632813 -0.0703,2.074219 -0.14063,1.4414062 -0.14063,2.109375 1.30078,0.28125 1.37109,0.3515625 -0.0351,0.035156 -0.17578,0.035156 0.70313,0 12.09375,-6.8554688 0.84375,-0.773438 2.77735,-2.003906 6.64453,-2.882813 9.10547,-2.882813 3.33984,0 3.33984,6.539063 z"
              stroke-width="0" stroke-linejoin="miter" stroke-miterlimit="2" fill="#abdf00" stroke="#abdf00"
              transform="translate(0 284.258474655) translate(376.82765814999993 95.87047225) scale(0.91) translate(-400.41407 19.828125)"></path>
        <path id="path280257"
              style="font-style:normal;font-weight:normal;font-size:72px;line-height:1;font-family:Daniel;font-variant-ligatures:none;text-align:center;text-anchor:middle"
              d="m 490.87109,-1.8632812 q -1.30078,1.54687495 -3.375,1.54687495 h -12.44531 q -4.32422,0 -9.63281,-1.30078125 -6.96094,-1.6875 -7.875,-4.2539062 -1.01953,-2.8828126 -1.01953,-5.5195313 0,-5.308594 4.57031,-8.15625 3.86719,-2.460937 9.42187,-2.460937 4.78125,0 7.59375,2.074218 2.8125,2.039063 2.8125,5.589844 0,1.96875 -6.75,4.324219 -5.58984,2.003906 -8.12109,2.003906 -0.31641,0 -0.5625,-0.035156 0,0.4921876 -0.77344,1.1953126 0.42188,0.703125 4.11328,1.6171875 3.30469,0.84375 4.71094,0.84375 h 11.17969 q 0,0 0,0 0,0.035156 4.21875,0.6328124 1.33594,0.84375 1.93359,1.8984376 z M 476.38672,-15.890625 q -1.96875,-2.003906 -6.32813,-2.003906 -3.05859,0 -5.66015,1.195312 -3.375,1.546875 -3.375,4.183594 0,0.949219 0.63281,1.335937 h 2.25 q 1.19531,0 6.46875,-2.003906 5.27344,-2.003906 6.01172,-2.707031 z"
              stroke-width="0" stroke-linejoin="miter" stroke-miterlimit="2" fill="#b7d700" stroke="#b7d700"
              transform="translate(0 284.258474655) translate(441.53718484999996 93.88695708) scale(0.91) translate(-456.52344 22.007812)"></path>
        <path id="path280259"
              style="font-style:normal;font-weight:normal;font-size:72px;line-height:1;font-family:Daniel;font-variant-ligatures:none;text-align:center;text-anchor:middle"
              d="m 559.53125,-15.820313 q 0,3.585938 -6.85547,8.3320318 -4.81641,3.375 -10.05469,5.625 -3.72656,1.6523437 -5.0625,1.6523437 h -1.4414 l -0.98438,-1.0898437 q 0.73828,-1.8632813 1.89844,-2.7773438 1.40625,-0.5625 3.83203,-1.546875 14.09766,-5.449219 14.09766,-10.652344 0,-3.375 -9.77344,-3.375 -4.81641,0 -9.52734,0.773438 -6.71485,1.125 -8.26172,3.339843 -0.45703,1.863282 -1.54688,5.132813 -2.07422,-3.199219 -2.07422,-5.203125 0,-2.179687 1.16016,-3.550781 1.37109,-1.652344 9.31641,-3.410156 7.13671,-1.582032 10.33593,-1.582032 14.94141,0 14.94141,8.332031 z m -23.0625,6.117188 q 0,0.4570312 -1.33594,3.2695313 -1.58203,3.1992187 -1.75781,3.7968749 -5.66016,18.9140628 -6.43359,34.8749998 -2.03907,0.457031 -2.03907,0.527344 0,0 0.0352,0 -0.80859,0 -1.65234,-0.84375 -0.8086,-0.84375 -0.8086,-1.652344 0,-9.773437 6.89063,-33.0117185 0.94922,-3.1992187 2.70703,-6.3632813 0.59765,-1.0898442 3.26953,-2.3906252 1.125,0.773438 1.125,1.792969 z"
              stroke-width="0" stroke-linejoin="miter" stroke-miterlimit="2" fill="#c3cf00" stroke="#c3cf00"
              transform="translate(0 284.258474655) translate(515.2045604499999 91.93543296) scale(0.91) translate(-522.4766 24.152344)"></path>
        <path id="path280261"
              style="font-style:normal;font-weight:normal;font-size:72px;line-height:1;font-family:Daniel;font-variant-ligatures:none;text-align:center;text-anchor:middle"
              d="m 601.29687,-12.832031 q 0,3.7617185 -1.58203,6.4335935 -1.4414,2.4257812 -10.23047,4.78125 -7.83984,2.109375 -11.91796,2.109375 -4.78125,0 -9.45704,-2.2851562 -5.66015,-2.8125 -5.66015,-6.9960938 0,-1.8632815 2.14453,-3.7968755 1.89844,-1.371093 5.73047,-5.167968 2.53125,-3.09375 9.28125,-4.992188 5.69531,-1.617187 10.65234,-1.617187 1.33594,0 4.00781,1.160156 2.67188,1.230469 3.65625,2.25 0.98438,1.089844 2.17969,3.9375 1.19531,2.8125 1.19531,4.183594 z m -3.58593,-0.28125 q 0,-2.601563 -3.12891,-4.957031 -2.88281,-2.214844 -5.69531,-2.214844 -0.52735,0 -8.19141,1.511719 -2.95312,0.597656 -5.3789,2.285156 -8.29688,5.90625 -8.29688,8.1562497 0,1.8984376 4.53516,3.4453126 3.86718,1.3359374 6.29297,1.3359374 3.62109,0 10.16015,-1.4765624 5.97656,-1.3359375 8.50781,-4.0429688 1.19532,-1.2304685 1.19532,-4.0429685 z"
              stroke-width="0" stroke-linejoin="miter" stroke-miterlimit="2" fill="#cfc700" stroke="#cfc700"
              transform="translate(0 284.258474655) translate(565.2296446499998 91.74348029) scale(0.91) translate(-562.44922 24.363281)"></path>
        <path id="path280263"
              style="font-style:normal;font-weight:normal;font-size:72px;line-height:1;font-family:Daniel;font-variant-ligatures:none;text-align:center;text-anchor:middle"
              d="m 636.91016,-18.210937 -1.125,1.019531 q -3.69141,-1.160156 -5.73047,-1.160156 -0.14063,0 -0.28125,0 -2.63672,0.140625 -3.86719,0.140625 h -2.8125 q -0.0703,0 -2.46094,0.773437 -1.51172,0.105469 -4.46484,0.773438 -4.71094,2.074218 -5.625,7.3124995 -0.38672,2.0742188 -0.38672,3.65625 0,0.421875 0.0352,0.84375 0.28125,3.90234375 0.28125,4.60546875 -0.8086,0.2109375 -2.60157,0.421875 -0.98437,-1.89843745 -0.98437,-2.63671875 0,-0.3867188 0.17578,-2.0039062 0.10547,-1.6171875 0.10547,-2.1796875 0,-2.9531251 2.60156,-10.1601558 0.87891,-1.828125 2.53125,-2.988282 3.58594,-2.460937 13.25391,-2.460937 9.70312,0.03516 11.35547,2.566406 z"
              stroke-width="0" stroke-linejoin="miter" stroke-miterlimit="2" fill="#dbbf00" stroke="#dbbf00"
              transform="translate(0 284.258474655) translate(619.3178060499998 93.66301154) scale(0.91) translate(-606.88676 22.253906)"></path>
        <path id="path280265"
              style="font-style:normal;font-weight:normal;font-size:72px;line-height:1;font-family:Daniel;font-variant-ligatures:none;text-align:center;text-anchor:middle"
              d="m 677.79687,-23.765625 q -8.05078,0 -13.85156,2.671875 -1.40625,0.632813 -1.72265,1.792969 -0.0703,1.652344 -0.5625,6.011718 -0.17579,1.617188 -0.17579,3.3398442 0,0.3515625 0.14063,2.3554688 0.17578,1.96875 0.17578,2.2851563 0,2.7773437 -1.37109,4.6054687 -0.28125,-0.0703125 -1.54688,-0.5976562 -1.37109,-3.5507813 -1.37109,-8.2617188 0,-1.160156 0.38672,-4.640625 0.35156,-3.410156 0.35156,-4.605469 0,-1.054687 -0.73828,-1.582031 -0.63281,0.246094 -4.5,0.632813 -0.66797,0.140625 -4.00781,0.632812 -0.59766,0.07031 -2.17969,0.246094 -0.35156,0.03516 -1.72266,1.125 -0.35156,0.316406 -0.35156,1.371094 0,0.105468 0,0.246093 h -1.54688 q -0.52734,0 -2.21484,-1.441406 -1.65234,-1.476562 -1.65234,-1.898437 0,-2.179688 7.73437,-3.234375 9.45703,-1.300782 11.28516,-2.285157 1.05469,-0.632812 2.32031,-13.886718 0.63281,-6.539063 2.60156,-16.769532 0.17578,-0.878906 0.5625,-2.707031 0.14063,-0.386719 2.46094,-1.511719 l 0.59766,4.324219 q -0.17578,0.878906 -0.66797,3.691406 l -1.47656,9.035157 q -0.2461,1.125 -0.5625,4.324218 l -0.59766,12.550782 14.20312,-0.140625 z"
              stroke-width="0" stroke-linejoin="miter" stroke-miterlimit="2" fill="#e7b700" stroke="#e7b700"
              transform="translate(0 284.258474655) translate(662.4965598499998 59.43137046) scale(0.91) translate(-639.33594 59.871094)"></path>
        <path id="path280267"
              style="font-style:normal;font-weight:normal;font-size:72px;line-height:1;font-family:Daniel;font-variant-ligatures:none;text-align:center;text-anchor:middle"
              d="m 712.42578,-0.10546875 q -0.73828,1.01953125 -1.61719,1.01953125 -0.5625,0 -3.79687,-3.375 -3.23438,-3.4101562 -4.32422,-3.4101562 0,0 0,0 0,0.070312 -7.66406,2.9531249 Q 687.18359,0 685.03906,0 q -1.75781,0 -3.90234,-1.7226562 -2.14453,-1.7226563 -2.14453,-3.234375 0,-3.9023438 8.54297,-9.1054688 8.01562,-4.921875 12.23437,-4.921875 1.75781,0 3.16406,2.003906 v 1.511719 q -0.70312,1.019531 -1.61718,1.019531 -0.17579,0 -1.23047,-0.457031 -1.01953,-0.457031 -1.23047,-0.457031 -1.40625,0 -6.4336,2.882812 -4.78125,2.7070315 -6.39843,4.042969 -1.61719,1.40625 -2.07422,3.1992188 1.23047,1.1601562 2.91797,1.1601562 0.8789,0 8.47265,-2.9179687 7.5586,-2.9531251 9.14063,-2.9531251 2.32031,0 3.33984,1.1601563 0.2461,0.28125 1.79297,3.1640625 1.16016,2.1796875 2.8125,3.9375 z"
              stroke-width="0" stroke-linejoin="miter" stroke-miterlimit="2" fill="#f3af00" stroke="#f3af00"
              transform="translate(0 284.258474655) translate(712.2337473499999 96.63828475) scale(0.91) translate(-678.99219 18.984375)"></path>
        <path id="path280269"
              style="font-style:normal;font-weight:normal;font-size:72px;line-height:1;font-family:Daniel;font-variant-ligatures:none;text-align:center;text-anchor:middle"
              d="m 725.22266,-60.117187 -2.00391,44.437499 q -0.17578,0.140625 -0.17578,0.84375 0,0.703125 0.17578,1.933594 0.38672,3.3046877 1.82812,12.51562525 -0.0703,0.31640625 -1.19531,0.703125 -0.21094,0.0351563 -0.38672,0.0351563 -3.6914,0 -4.78125,-8.5078125 -0.0351,-0.1757813 -0.0351,-0.703125 0,-1.652344 0.17578,-6.785156 0.24609,-6.609375 0.59765,-13.816406 0.10547,-2.742188 0.8086,-10.195313 0.66797,-6.820312 0.66797,-10.125 0,-10.089844 1.33593,-14.097656 l 0.52735,-0.03516 q 0.10547,0 0.17578,0 1.19531,0 1.61719,1.335937 0.3164,0.878906 0.66797,2.460938 z"
              stroke-width="0" stroke-linejoin="miter" stroke-miterlimit="2" fill="#ffa700" stroke="#ffa700"
              transform="translate(0 284.258474655) translate(761.9709803499999 55.75226594) scale(0.91) translate(-718.64849 63.914066)"></path>
      </g>
      <image xlink:href="" id="icon" style="display: none;" x="0" y="0"></image>
    </g>
  </g>
</svg>
